<svg width="218" height="147" viewBox="0 0 218 147" fill="white" xmlns="http://www.w3.org/2000/svg">
    <path
        d="M118.984 -5.72211C118.984 -6.53184 118.767 -7.31307 118.521 -8.05869C117.899 -9.9441 116.816 -11.5659 115.341 -12.9028C113.306 -14.7502 110.964 -15.8972 108.138 -15.8901C106.409 -15.8853 104.678 -15.9067 102.95 -15.9067C101.033 -15.9067 99.1727 -16.1465 97.3391 -16.7853C94.6735 -17.7161 92.8637 -19.5635 91.403 -21.8407C90.2531 -23.6335 89.9782 -25.6424 89.9471 -27.7202C89.9112 -30.0497 90.0379 -32.3767 89.818 -34.7086C89.6244 -36.7768 88.9167 -38.6789 87.6831 -40.2651C85.29 -43.3497 82.0722 -45.0047 78.0678 -45C69.7195 -44.9905 49.4059 -45.0095 41.0576 -44.9929C38.4542 -44.9881 36.073 -44.2947 33.9597 -42.7038C30.7848 -40.3102 29.3074 -37.1045 29.2142 -33.2221C29.1592 -30.971 29.1903 -28.7175 29.2022 -26.4664C29.2046 -25.9511 29.1185 -25.462 28.9894 -24.9681C28.6356 -23.6027 28.0714 -22.3489 27.2825 -21.1592C25.2504 -18.096 22.3625 -16.4979 18.7669 -16.0468C16.534 -15.7666 14.2867 -15.8758 12.049 -15.9328C9.28781 -16.004 6.80867 -15.3225 4.64749 -13.6128C2.46958 -11.8913 0.815223 -9.75414 0.353821 -7.12549L0 -2.33596L0.196036 -4.65592C0.0717205 0.209587 0.0812833 5.07985 0.196036 9.94773V23.1005C0.107581 25.6057 0.181692 28.1132 0.155394 30.6184C0.143441 31.8057 0.248631 32.974 0.647875 34.0806C1.41768 36.2248 2.66322 38.0485 4.48014 39.4851C6.08668 40.7555 7.87013 41.6578 9.9046 41.8264C11.9988 41.9974 14.1146 41.9665 16.2208 41.9641C18.5469 41.9618 20.7942 42.1731 22.9147 43.2773C24.5786 44.144 25.9461 45.2814 27.0386 46.7822C28.6523 48.9953 29.3696 51.4482 29.2237 54.1885C29.1353 55.8459 29.1616 57.5129 29.2189 59.1751C29.2811 61.0083 29.5489 62.8034 30.431 64.4728C32.6113 68.5998 36.0204 70.9007 40.7133 70.9506C49.3055 71.0432 69.8606 70.9767 78.4527 70.9791C80.8577 70.9791 83.0811 70.2786 84.9936 68.9061C88.3597 66.4864 89.9304 63.0908 89.9543 58.9828C89.9638 57.1591 89.9614 55.3354 89.9591 53.5141C89.9591 51.1751 90.5089 49.0143 91.9003 47.0719C94.0997 43.9992 97.0594 42.2633 100.846 42.0354C102.811 41.9167 104.788 41.9974 106.761 41.9594C108.587 41.9238 110.407 41.8525 112.118 41.0689C113.318 40.5204 114.385 39.7962 115.346 38.9104C117.469 36.9538 118.934 34.5721 118.953 31.6799C119.032 19.2133 118.987 6.7468 118.989 -5.71973L118.984 -5.72211ZM89.9017 31.2073C89.8419 31.8461 89.7463 32.4777 89.6005 33.1022C89.0721 35.3486 87.9557 37.3409 86.1603 38.8914C85.1179 39.7914 84.0278 40.5964 82.7296 41.1307C81.1518 41.7813 79.5189 41.9238 77.8407 41.919C68.9784 41.8953 48.1555 41.9262 39.2933 41.8335C37.2588 41.8122 35.4562 40.8576 33.8425 39.6086C32.1953 38.3334 30.9522 36.7472 30.1202 34.857C29.4461 33.3254 29.2333 31.6727 29.2285 30.0272C29.1974 18.66 29.1879 7.29533 29.2189 -4.07177C29.2309 -8.60959 31.2678 -12.1382 35.1359 -14.4962C36.6205 -15.4009 38.3394 -15.9138 40.1802 -15.9067C49.3126 -15.8758 70.408 -15.9423 79.5381 -15.8616C81.8451 -15.8402 83.8963 -14.8405 85.6486 -13.297C86.6671 -12.3994 87.6257 -11.4781 88.2999 -10.267C89.1271 -8.78294 89.6698 -7.24184 89.8061 -5.54876C89.8467 -5.03111 89.8754 -4.51107 89.8993 -3.99342V31.2097L89.9017 31.2073Z"
        fill="white" />
    <path
        d="M39.0545 12.9421C39.0545 12.3698 39.0545 11.7951 39.0545 11.2229C39.0521 10.4796 39.3031 9.81237 39.6234 9.15224C40.1207 8.1288 40.9096 7.39743 41.8731 6.8394C42.4755 6.48796 43.1401 6.31225 43.8454 6.25051C45.024 6.14603 46.2002 6.23389 47.3764 6.18877C49.2579 6.11516 50.6995 5.28406 51.7777 3.75008C52.4519 2.78838 52.6503 1.71744 52.6814 0.594265C52.7124 -0.585899 52.6192 -1.77319 52.765 -2.9486C52.8654 -3.77258 53.2479 -4.49208 53.7356 -5.15934C54.2951 -5.92158 55.0314 -6.48435 55.8705 -6.89515C56.6021 -7.25371 57.4125 -7.32495 58.2182 -7.33445C59.4326 -7.35107 60.6495 -7.39143 61.8592 -7.25846C62.5501 -7.18247 63.1956 -6.91177 63.7741 -6.52472C64.8332 -5.81472 65.6436 -4.89576 66.0453 -3.67048C66.2389 -3.08158 66.2987 -2.46419 66.313 -1.84442C66.3393 -0.735493 66.2485 0.373432 66.3824 1.47998C66.588 3.17068 67.439 4.44345 68.8758 5.36716C69.2082 5.58088 69.5524 5.75422 69.911 5.89195C70.437 6.09379 70.9964 6.17214 71.5558 6.18639C72.4882 6.21013 73.4205 6.18401 74.3553 6.20064C75.5196 6.22201 76.6384 6.43098 77.5994 7.1386C78.5151 7.8106 79.2012 8.64646 79.6148 9.73164C79.8826 10.4393 79.9567 11.1374 79.9447 11.8688C79.9304 12.8067 79.9136 13.747 79.9495 14.685C79.9758 15.3689 79.7343 15.9744 79.4833 16.5704C79.0673 17.563 78.3549 18.349 77.4584 18.926C76.6814 19.4247 75.8064 19.7286 74.8526 19.7239C73.9202 19.7215 72.9878 19.7262 72.0531 19.7239C70.7478 19.7239 69.5309 20.0421 68.4886 20.8304C67.4151 21.6425 66.7099 22.7063 66.4517 24.0503C66.2294 25.2115 66.3322 26.3822 66.313 27.5481C66.2987 28.4267 66.2198 29.2887 65.8684 30.1055C65.6819 30.5401 65.4141 30.9271 65.1177 31.2952C64.6898 31.8247 64.1901 32.302 63.602 32.6202C62.9135 32.993 62.1556 33.2732 61.3572 33.3017C60.0208 33.3468 58.682 33.4228 57.3504 33.2566C55.7175 33.0524 54.4696 32.1904 53.5516 30.8701C52.9348 29.9844 52.6885 28.9681 52.6814 27.8853C52.6742 26.7763 52.7483 25.6674 52.624 24.5609C52.5044 23.4899 52.1148 22.552 51.4095 21.7138C50.7784 20.9634 50.0181 20.4196 49.1216 20.0848C48.4977 19.8521 47.8283 19.7239 47.1493 19.7239C46.1787 19.7239 45.2105 19.7286 44.2398 19.7191C42.9178 19.7049 41.8014 19.2252 40.8188 18.3347C40.2115 17.7862 39.7549 17.1474 39.4346 16.4279C39.2242 15.953 39.0425 15.4354 39.0545 14.8845C39.0664 14.2386 39.0568 13.5927 39.0568 12.9468L39.0545 12.9421Z"
        fill="white" />
    <path
        d="M222.987 83.5058C222.987 82.8357 222.806 82.1892 222.601 81.5721C222.084 80.0118 221.183 78.6696 219.956 77.5632C218.263 76.0343 216.314 75.0851 213.963 75.091C212.525 75.0949 211.085 75.0772 209.647 75.0772C208.052 75.0772 206.505 74.8788 204.98 74.3501C202.762 73.5798 201.256 72.0509 200.041 70.1663C199.085 68.6826 198.856 67.0201 198.83 65.3005C198.8 63.3727 198.906 61.4468 198.723 59.517C198.561 57.8054 197.973 56.2313 196.946 54.9186C194.956 52.3658 192.279 50.9961 188.947 51C182.002 51.0079 165.102 50.9921 158.157 51.0059C155.991 51.0098 154.01 51.5837 152.252 52.9003C149.611 54.8812 148.382 57.5342 148.304 60.7472C148.258 62.6102 148.284 64.4752 148.294 66.3381C148.296 66.7646 148.225 67.1694 148.117 67.5782C147.823 68.7081 147.354 69.7457 146.697 70.7303C145.007 73.2654 142.604 74.5879 139.613 74.9613C137.755 75.1932 135.886 75.1028 134.024 75.0556C131.727 74.9967 129.664 75.5607 127.866 76.9756C126.055 78.4003 124.678 80.169 124.294 82.3444L124 86.3082L124.163 84.3882C124.06 88.4148 124.068 92.4454 124.163 96.474V107.359C124.089 109.432 124.151 111.508 124.129 113.581C124.119 114.563 124.207 115.53 124.539 116.446C125.179 118.221 126.216 119.73 127.727 120.919C129.064 121.97 130.547 122.717 132.24 122.856C133.982 122.998 135.742 122.972 137.495 122.97C139.43 122.968 141.299 123.143 143.063 124.057C144.448 124.774 145.585 125.716 146.494 126.958C147.837 128.789 148.433 130.819 148.312 133.087C148.239 134.459 148.26 135.838 148.308 137.214C148.36 138.731 148.583 140.217 149.317 141.598C151.13 145.014 153.967 146.918 157.871 146.959C165.019 147.036 182.119 146.981 189.267 146.983C191.268 146.983 193.118 146.403 194.709 145.267C197.509 143.265 198.816 140.454 198.836 137.055C198.844 135.545 198.842 134.036 198.84 132.529C198.84 130.593 199.297 128.805 200.455 127.197C202.285 124.654 204.747 123.218 207.897 123.029C209.532 122.931 211.177 122.998 212.818 122.966C214.337 122.937 215.851 122.878 217.275 122.229C218.273 121.776 219.16 121.176 219.96 120.443C221.726 118.824 222.945 116.853 222.961 114.459C223.027 104.142 222.989 93.8249 222.991 83.5078L222.987 83.5058ZM198.792 114.068C198.742 114.597 198.663 115.119 198.542 115.636C198.102 117.495 197.173 119.144 195.68 120.427C194.812 121.172 193.905 121.838 192.825 122.281C191.513 122.819 190.154 122.937 188.758 122.933C181.385 122.913 164.062 122.939 156.689 122.862C154.997 122.845 153.497 122.055 152.155 121.021C150.784 119.966 149.75 118.653 149.058 117.089C148.497 115.821 148.32 114.453 148.316 113.091C148.29 103.684 148.282 94.2789 148.308 84.8716C148.318 81.1162 150.013 78.196 153.231 76.2446C154.466 75.4958 155.896 75.0713 157.427 75.0772C165.025 75.1028 182.575 75.0478 190.17 75.1146C192.09 75.1323 193.796 75.9596 195.254 77.237C196.101 77.9798 196.899 78.7423 197.46 79.7445C198.148 80.9727 198.599 82.2481 198.713 83.6493C198.746 84.0777 198.77 84.5081 198.79 84.9365V114.07L198.792 114.068Z"
        fill="white" />
    <path
        d="M156.491 98.9521C156.491 98.4785 156.491 98.0029 156.491 97.5293C156.489 96.9142 156.698 96.362 156.964 95.8157C157.378 94.9687 158.034 94.3634 158.836 93.9016C159.337 93.6107 159.89 93.4653 160.476 93.4142C161.457 93.3277 162.435 93.4005 163.414 93.3631C164.979 93.3022 166.179 92.6144 167.076 91.3449C167.636 90.549 167.801 89.6627 167.827 88.7332C167.853 87.7565 167.776 86.7739 167.897 85.8012C167.98 85.1192 168.299 84.5238 168.704 83.9716C169.17 83.3408 169.782 82.875 170.481 82.535C171.089 82.2383 171.763 82.1794 172.434 82.1715C173.444 82.1577 174.456 82.1243 175.463 82.2344C176.037 82.2973 176.574 82.5213 177.056 82.8416C177.937 83.4292 178.611 84.1897 178.945 85.2037C179.106 85.6911 179.156 86.2021 179.168 86.715C179.19 87.6327 179.114 88.5504 179.226 89.4662C179.397 90.8654 180.105 91.9187 181.3 92.6832C181.577 92.86 181.863 93.0035 182.161 93.1175C182.599 93.2845 183.064 93.3494 183.53 93.3611C184.305 93.3808 185.081 93.3592 185.859 93.3729C186.827 93.3906 187.758 93.5636 188.558 94.1492C189.319 94.7053 189.89 95.3971 190.234 96.2952C190.457 96.8808 190.519 97.4585 190.509 98.0638C190.497 98.84 190.483 99.6182 190.513 100.394C190.534 100.96 190.334 101.462 190.125 101.955C189.779 102.776 189.186 103.427 188.44 103.904C187.794 104.317 187.066 104.569 186.272 104.565C185.497 104.563 184.721 104.567 183.943 104.565C182.857 104.565 181.845 104.828 180.978 105.48C180.085 106.152 179.498 107.033 179.283 108.145C179.098 109.106 179.184 110.075 179.168 111.04C179.156 111.767 179.09 112.48 178.798 113.156C178.643 113.516 178.42 113.836 178.174 114.141C177.818 114.579 177.402 114.974 176.913 115.237C176.34 115.546 175.709 115.778 175.045 115.801C173.933 115.839 172.819 115.902 171.712 115.764C170.353 115.595 169.315 114.882 168.551 113.789C168.038 113.056 167.833 112.215 167.827 111.319C167.821 110.401 167.883 109.483 167.78 108.568C167.68 107.681 167.356 106.905 166.769 106.211C166.244 105.59 165.612 105.14 164.866 104.863C164.347 104.671 163.79 104.565 163.225 104.565C162.418 104.565 161.612 104.569 160.805 104.561C159.705 104.549 158.776 104.152 157.958 103.415C157.453 102.961 157.073 102.432 156.807 101.837C156.632 101.444 156.481 101.015 156.491 100.56C156.501 100.025 156.493 99.4905 156.493 98.956L156.491 98.9521Z"
        fill="white" />
</svg>