<svg width="24" height="24" viewBox="0 0 24 24" fill="none" xmlns="http://www.w3.org/2000/svg">
    <g clip-path="url(#clip0_12398_6514)">
        <path
            d="M12.0034 23.9884C18.5475 23.9884 23.8525 18.6422 23.8525 12.0474C23.8525 5.45259 18.5475 0.106445 12.0034 0.106445C5.45932 0.106445 0.154297 5.45259 0.154297 12.0474C0.154297 18.6422 5.45932 23.9884 12.0034 23.9884Z"
            fill="#D2091F" />
        <path
            d="M17.5206 8.15365H16.7494C16.3209 8.15365 15.9567 8.00288 15.6565 7.70065C15.3567 7.39875 15.2066 7.03176 15.2066 6.6007V5.82419C15.2066 5.39245 15.0565 5.02609 14.7564 4.72352C14.4565 4.42162 14.092 4.27051 13.6635 4.27051H10.3211C9.89265 4.27051 9.52849 4.42162 9.22829 4.72352C8.92848 5.02575 8.77838 5.39245 8.77838 5.82419V6.6007C8.77838 7.03176 8.62828 7.39875 8.32813 7.70065C8.02827 8.00288 7.66382 8.15365 7.23529 8.15365H6.46414C6.03561 8.15365 5.67149 8.30477 5.3713 8.607C5.07149 8.9089 4.92139 9.27593 4.92139 9.707V14.367C4.92139 14.7981 5.07115 15.165 5.3713 15.4669C5.67116 15.7692 6.03561 15.9199 6.46414 15.9199H7.23529C7.66382 15.9199 8.02793 16.0711 8.32813 16.3733C8.62794 16.6752 8.77838 17.0422 8.77838 17.4733V18.2498C8.77838 18.6815 8.92814 19.0479 9.22829 19.3504C9.52815 19.6523 9.89265 19.8034 10.3211 19.8034H13.6635C14.092 19.8034 14.4562 19.6523 14.7564 19.3504C15.0562 19.0482 15.2066 18.6815 15.2066 18.2498V17.4733C15.2066 17.0422 15.3564 16.6752 15.6565 16.3733C15.9564 16.0711 16.3209 15.9199 16.7494 15.9199H17.5206C17.949 15.9199 18.3132 15.7692 18.6133 15.4669C18.9132 15.165 19.0636 14.7981 19.0636 14.367V9.707C19.0636 9.27593 18.9135 8.9089 18.6133 8.607C18.3135 8.30477 17.949 8.15365 17.5206 8.15365ZM15.2066 14.367C15.2066 14.7981 15.0565 15.165 14.7564 15.4669C14.4565 15.7692 14.092 15.9199 13.6635 15.9199H10.3211C9.89265 15.9199 9.52849 15.7692 9.22829 15.4669C8.92848 15.165 8.77838 14.7981 8.77838 14.367V9.707C8.77838 9.27593 8.92814 8.9089 9.22829 8.607C9.52815 8.30477 9.89265 8.15365 10.3211 8.15365H13.6635C14.092 8.15365 14.4562 8.30477 14.7564 8.607C15.0562 8.9089 15.2066 9.27593 15.2066 9.707V14.367Z"
            fill="white" />
    </g>
    <defs>
        <clipPath id="clip0_12398_6514">
            <rect width="24" height="24" fill="white" />
        </clipPath>
    </defs>
</svg>